PathFileType	4	(X/Y/Z)	 s04c0001.trc
DataRate	CameraRate	NumFrames	NumMarkers	Units	OrigDataRate	OrigDataStartFrame	OrigNumFrames
200	200	5	49	mm	200	1	2000
Frame#	Time	racr			lacr			c7			jug			rlel			rdr			llel			ldr			s2			lic			ric			lasi			rasi			rpsi			lpsi			rgt			lgt			rth1			rth2			rth3			rth4			rlfc			rmfc			rsh1			rsh2			rsh3			rsh4			rlmal			rmmal			rcal			rtoe			rmt5			rmt1			lth1			lth2			lth4			lth3			llfc			lmfc			lsh1			lsh2			lsh3			lsh4			llmal			lmmal			lcal			ltoe			lmt1			lmt5			
		X1	Y1	Z1	X2	Y2	Z2	X3	Y3	Z3	X4	Y4	Z4	X5	Y5	Z5	X6	Y6	Z6	X7	Y7	Z7	X8	Y8	Z8	X9	Y9	Z9	X10	Y10	Z10	X11	Y11	Z11	X12	Y12	Z12	X13	Y13	Z13	X14	Y14	Z14	X15	Y15	Z15	X16	Y16	Z16	X17	Y17	Z17	X18	Y18	Z18	X19	Y19	Z19	X20	Y20	Z20	X21	Y21	Z21	X22	Y22	Z22	X23	Y23	Z23	X24	Y24	Z24	X25	Y25	Z25	X26	Y26	Z26	X27	Y27	Z27	X28	Y28	Z28	X29	Y29	Z29	X30	Y30	Z30	X31	Y31	Z31	X32	Y32	Z32	X33	Y33	Z33	X34	Y34	Z34	X35	Y35	Z35	X36	Y36	Z36	X37	Y37	Z37	X38	Y38	Z38	X39	Y39	Z39	X40	Y40	Z40	X41	Y41	Z41	X42	Y42	Z42	X43	Y43	Z43	X44	Y44	Z44	X45	Y45	Z45	X46	Y46	Z46	X47	Y47	Z47	X48	Y48	Z48	X49	Y49	Z49	
1	0.0050	161.213277	1559.628728	280.786886	184.212077	1556.321161	-83.660943	110.403391	1589.802899	83.177225	244.147444	1527.544488	96.119593	90.542471	1218.639861	376.500741	205.143697	980.187032	489.572990	148.762336	1239.931696	-194.645152	294.251672	986.598880	-277.437977	58.446002	1053.295782	97.547840	233.403055	1110.903416	-49.069412	196.359862	1102.268716	274.175146	280.848614	1056.268859	5.202031	261.822005	1061.050717	232.514824	76.106426	1088.536855	142.638789	77.617414	1084.074934	63.254357	160.978005	1001.074728	278.138838	184.778682	955.548290	-67.111932	176.595888	865.813000	299.923482	191.875967	779.528515	291.201507	165.452629	699.104816	280.539014	228.210414	778.514977	280.840374	152.658977	547.898035	250.789640	160.361800	525.575085	140.447606	104.608203	425.249358	269.030438	120.629443	335.443506	260.692687	88.143286	256.663842	243.589147	157.173966	335.245819	246.273671	89.315939	102.756446	231.909164	137.931294	111.317592	159.583862	48.154967	68.192974	168.208546	313.809557	83.392505	304.818191	231.946500	52.913568	326.774371	279.128008	50.004137	227.852326	188.120944	862.154111	-80.013967	207.059397	778.041709	-79.961458	242.625872	777.355064	-68.545167	182.474888	692.244602	-72.175044	162.297779	551.684311	-53.824697	188.472115	521.794688	50.769270	146.785357	423.365450	-80.156062	169.648327	339.680965	-67.758431	146.519551	253.510467	-67.402604	198.917480	342.185363	-42.749911	147.069667	104.075525	-63.539253	154.442031	100.594833	22.266631	80.170141	77.344556	-14.544686	376.839120	83.091714	-57.774800	312.681442	55.047079	0.051248	302.126182	43.349709	-111.279226	
2	0.0100	161.210087	1559.657943	280.774213	184.222673	1556.311006	-83.674112	110.411100	1589.825299	83.156381	244.139480	1527.541348	96.093574	90.452761	1218.703500	376.535561	204.979238	980.228099	489.630553	148.735838	1239.922735	-194.654124	294.173459	986.549404	-277.423849	58.417092	1053.290434	97.567001	233.325220	1110.901174	-49.074553	196.268493	1102.287226	274.188253	280.750662	1056.252161	5.200093	261.763945	1061.041958	232.534254	76.041056	1088.537337	142.635462	77.578409	1084.054327	63.249355	160.909063	1001.065200	278.143452	184.722328	955.536241	-67.111846	176.577016	865.826800	299.936296	191.832100	779.524256	291.219677	165.455995	699.107385	280.565280	228.166972	778.548760	280.881281	152.669730	547.885275	250.814525	160.405300	525.583479	140.474271	104.649919	425.212867	269.058148	120.659069	335.434741	260.689685	88.158962	256.663091	243.596461	157.204245	335.217846	246.287535	89.310779	102.746671	231.907938	137.931183	111.318138	159.578853	48.149559	68.188741	168.215851	313.810238	83.380711	304.823858	231.926272	52.897358	326.769743	279.127961	50.007051	227.856823	188.088265	862.145007	-80.023727	207.049824	778.045532	-79.958994	242.619924	777.372816	-68.549682	182.480089	692.229705	-72.168631	162.334066	551.690822	-53.818028	188.544495	521.784789	50.766894	146.833929	423.362254	-80.151389	169.679115	339.632988	-67.751939	146.534180	253.517293	-67.412118	198.973971	342.125355	-42.703111	147.066066	104.087723	-63.540627	154.443577	100.607500	22.256866	80.174333	77.343134	-14.548395	376.824874	83.101359	-57.789330	312.684408	55.042514	0.051724	302.091451	43.372859	-111.285836	
3	0.0150	161.231396	1559.684159	280.765060	184.214142	1556.295702	-83.683755	110.403480	1589.857388	83.172394	244.133642	1527.516871	96.080642	90.408304	1218.733572	376.548791	204.837431	980.256353	489.680292	148.686267	1239.908532	-194.648123	294.112727	986.517845	-277.405451	58.350493	1053.283461	97.555612	233.265241	1110.905838	-49.070571	196.212110	1102.298334	274.185373	280.695175	1056.267185	5.211022	261.706167	1061.056954	232.557692	75.983263	1088.531882	142.636667	77.513591	1084.061183	63.248322	160.826729	1001.067804	278.156585	184.665992	955.542477	-67.107126	176.542384	865.818732	299.943670	191.834854	779.530051	291.218210	165.440738	699.086018	280.569570	228.169086	778.555737	280.889565	152.712140	547.882631	250.836236	160.452731	525.572091	140.495594	104.681702	425.189912	269.065906	120.694088	335.419766	260.694127	88.178862	256.646975	243.599049	157.240278	335.214088	246.288947	89.317423	102.745349	231.904922	137.936472	111.327865	159.570103	48.147398	68.197330	168.200843	313.804893	83.388586	304.817708	231.916923	52.917409	326.770598	279.135714	49.999538	227.856156	188.061073	862.149864	-80.025221	207.025536	778.018932	-79.950599	242.614355	777.391180	-68.554360	182.506768	692.229474	-72.169417	162.391666	551.691750	-53.827252	188.620188	521.793696	50.773688	146.866977	423.355424	-80.145711	169.718415	339.639357	-67.738148	146.551139	253.508863	-67.405901	199.006021	342.119940	-42.702922	147.049723	104.095811	-63.546213	154.443466	100.602694	22.264079	80.179563	77.335942	-14.550467	376.836640	83.097379	-57.776199	312.688682	55.038159	0.061830	302.103764	43.358166	-111.279668	
4	0.0200	161.221342	1559.700839	280.744831	184.225372	1556.285168	-83.709407	110.426584	1589.870248	83.139162	244.107352	1527.505896	96.060363	90.340971	1218.783848	376.563528	204.698418	980.287470	489.732615	148.655083	1239.911222	-194.645830	294.025807	986.489319	-277.404475	58.952745	1053.038536	98.229388	233.185112	1110.882106	-49.087991	196.387693	1102.119205	274.192480	280.644358	1056.293048	5.209731	261.631957	1061.070298	232.556859	75.929766	1088.535482	142.633675	77.452841	1084.061108	63.246899	160.780823	1001.065569	278.153784	184.621010	955.547730	-67.105007	176.614610	865.803550	299.965080	190.474622	780.043791	292.743978	165.441627	699.102685	280.595042	228.038650	778.773221	280.992896	152.744376	547.875363	250.853217	160.477514	525.560896	140.500367	104.709945	425.200030	269.083184	120.737381	335.550625	260.649000	88.201486	256.643692	243.609801	157.143825	335.149316	246.210438	89.089843	102.904515	231.905276	138.027457	111.174248	159.607938	48.154967	68.187322	168.202926	313.799314	83.395021	304.814826	231.948348	52.911174	326.782312	279.133440	50.010615	227.860441	188.022688	862.142050	-80.014040	208.245873	777.453641	-77.585985	243.578374	775.856081	-67.597241	182.514579	692.234355	-72.169262	162.425831	551.689626	-53.817590	188.685678	521.792536	50.776990	146.905410	423.328816	-80.191590	169.762557	339.619893	-67.740576	146.590187	253.504637	-67.397084	199.062071	341.254860	-41.666631	147.081070	104.072536	-63.535830	154.724282	100.174865	22.259340	80.176704	77.343863	-14.532019	376.906957	82.952282	-57.773359	312.685847	55.043320	0.054708	302.104524	43.369962	-111.291242	
5	0.0250	161.228590	1559.605855	280.759433	184.215949	1556.138416	-83.670850	110.346761	1589.819746	83.071819	243.808282	1527.294241	95.980104	89.649261	1218.909764	376.641569	204.534476	980.361465	489.758765	148.707212	1239.944800	-194.652965	293.930678	986.386973	-277.384945	58.599017	1053.148608	98.003581	233.130921	1110.837945	-49.112784	196.400856	1102.275014	274.100614	280.238718	1056.190115	5.248271	261.723388	1061.066990	232.611273	75.833143	1088.597364	142.810076	77.369499	1084.104428	63.292355	160.679037	1001.121247	278.188018	184.534290	955.583228	-67.246243	176.603755	865.898389	300.004642	190.581876	780.080427	292.669212	165.457641	699.088279	280.484706	228.033741	778.902552	280.956009	152.791183	547.889798	250.798084	160.541148	525.542728	140.565246	104.736563	425.153804	269.057749	120.872806	335.616761	260.554095	88.264656	256.573685	243.514593	157.201262	335.178577	246.235146	89.077703	102.925968	231.808280	138.248052	111.302828	159.594769	48.290858	68.276332	168.239269	313.962518	83.450769	304.798643	232.083789	52.863724	326.712404	279.248018	50.016274	227.763981	187.904488	862.107392	-80.062298	208.222713	777.444813	-77.628783	243.540489	775.342970	-67.709767	182.607258	692.290292	-72.132466	162.654011	551.648441	-53.583971	188.798469	521.802627	50.762894	147.030778	423.360148	-80.148278	169.857426	339.629650	-67.724339	146.777319	253.613887	-67.350387	199.147133	341.255465	-41.625072	146.889351	104.296164	-63.717157	154.798240	100.140766	22.155887	80.228908	77.441388	-14.455296	376.897878	83.024057	-57.769149	312.769972	55.106434	0.022333	302.158263	43.202138	-111.073340	
